<svg width="129" height="43" viewBox="0 0 129 43" fill="none" xmlns="http://www.w3.org/2000/svg">
<path d="M21 4.16736L39.1865 13.6592V32.6428L21 42.1347L2.81347 32.6428V13.6592L21 4.16736Z" fill="#009ED8"/>
<path d="M12.5615 28.0672V11.16C14.5185 8.96057 16.3082 10.2436 16.9585 11.16V19.0289L37.1734 0.826038C39.9422 0.314083 40.3722 2.22443 40.2411 3.2436L12.5615 28.0672Z" fill="#0ACF83"/>
<path d="M12.5605 36.7543V31.4012L17.4342 27.2324L20.3164 29.7432L12.5605 36.7543Z" fill="white"/>
<path d="M31.9006 36.4549L19.4255 25.1954L31.2165 14.4418C34.5703 14.1007 34.5703 16.1314 34.1511 17.1894L25.3152 25.1954L35.6841 34.4785L31.9006 36.4549Z" fill="white"/>
<path d="M63.9432 21.7045C63.8485 21.3977 63.7178 21.1231 63.5511 20.8807C63.3883 20.6345 63.1913 20.4242 62.9602 20.25C62.733 20.0758 62.4716 19.9451 62.1761 19.858C61.8807 19.767 61.5587 19.7216 61.2102 19.7216C60.5852 19.7216 60.0284 19.8788 59.5398 20.1932C59.0511 20.5076 58.6667 20.9697 58.3864 21.5795C58.1098 22.1856 57.9716 22.9242 57.9716 23.7955C57.9716 24.6742 58.1098 25.4186 58.3864 26.0284C58.6629 26.6383 59.0473 27.1023 59.5398 27.4205C60.0322 27.7348 60.6042 27.892 61.2557 27.892C61.8466 27.892 62.358 27.7784 62.7898 27.5511C63.2254 27.3239 63.5606 27.0019 63.7955 26.5852C64.0303 26.1648 64.1477 25.6723 64.1477 25.108L64.625 25.1818H61.4659V23.5341H66.1875V24.9318C66.1875 25.928 65.9754 26.7898 65.5511 27.517C65.1269 28.2443 64.5436 28.8049 63.8011 29.1989C63.0587 29.589 62.2064 29.7841 61.2443 29.7841C60.1723 29.7841 59.2311 29.5436 58.4205 29.0625C57.6136 28.5777 56.983 27.8902 56.5284 27C56.0777 26.1061 55.8523 25.0455 55.8523 23.8182C55.8523 22.8788 55.9848 22.0398 56.25 21.3011C56.5189 20.5625 56.8939 19.9356 57.375 19.4205C57.8561 18.9015 58.4205 18.5076 59.0682 18.2386C59.7159 17.9659 60.4205 17.8295 61.1818 17.8295C61.8258 17.8295 62.4261 17.9242 62.983 18.1136C63.5398 18.2992 64.0341 18.5644 64.4659 18.9091C64.9015 19.2538 65.2595 19.6629 65.5398 20.1364C65.8201 20.6098 66.0038 21.1326 66.0909 21.7045H63.9432ZM68.2259 29.625V17.9886H72.5895C73.4834 17.9886 74.2334 18.1439 74.8395 18.4545C75.4493 18.7652 75.9096 19.2008 76.2202 19.7614C76.5346 20.3182 76.6918 20.9678 76.6918 21.7102C76.6918 22.4564 76.5327 23.1042 76.2145 23.6534C75.9001 24.1989 75.4361 24.6212 74.8224 24.9205C74.2088 25.2159 73.455 25.3636 72.5611 25.3636H69.4531V23.6136H72.277C72.7997 23.6136 73.2277 23.5417 73.5611 23.3977C73.8944 23.25 74.1406 23.036 74.2997 22.7557C74.4626 22.4716 74.544 22.1231 74.544 21.7102C74.544 21.2973 74.4626 20.9451 74.2997 20.6534C74.1368 20.358 73.8887 20.1345 73.5554 19.983C73.2221 19.8277 72.7921 19.75 72.2656 19.75H70.3338V29.625H68.2259ZM74.2372 24.3523L77.1179 29.625H74.7656L71.9361 24.3523H74.2372ZM85.9673 17.9886H88.0753V25.5909C88.0753 26.4242 87.8783 27.1572 87.4844 27.7898C87.0942 28.4223 86.545 28.9167 85.8366 29.2727C85.1283 29.625 84.3007 29.8011 83.3537 29.8011C82.4029 29.8011 81.5734 29.625 80.8651 29.2727C80.1567 28.9167 79.6075 28.4223 79.2173 27.7898C78.8272 27.1572 78.6321 26.4242 78.6321 25.5909V17.9886H80.7401V25.4148C80.7401 25.8996 80.8461 26.3314 81.0582 26.7102C81.2741 27.089 81.5772 27.3864 81.9673 27.6023C82.3575 27.8144 82.8196 27.9205 83.3537 27.9205C83.8878 27.9205 84.3499 27.8144 84.7401 27.6023C85.134 27.3864 85.437 27.089 85.6491 26.7102C85.8613 26.3314 85.9673 25.8996 85.9673 25.4148V17.9886ZM90.3665 29.625V17.9886H94.7301C95.6241 17.9886 96.3741 18.1553 96.9801 18.4886C97.59 18.822 98.0502 19.2803 98.3608 19.8636C98.6752 20.4432 98.8324 21.1023 98.8324 21.8409C98.8324 22.5871 98.6752 23.25 98.3608 23.8295C98.0464 24.4091 97.5824 24.8655 96.9688 25.1989C96.3551 25.5284 95.5994 25.6932 94.7017 25.6932H91.8097V23.9602H94.4176C94.9403 23.9602 95.3684 23.8693 95.7017 23.6875C96.035 23.5057 96.2813 23.2557 96.4403 22.9375C96.6032 22.6193 96.6847 22.2538 96.6847 21.8409C96.6847 21.428 96.6032 21.0644 96.4403 20.75C96.2813 20.4356 96.0331 20.1913 95.696 20.017C95.3627 19.839 94.9328 19.75 94.4062 19.75H92.4744V29.625H90.3665ZM111.061 23.8068C111.061 25.0606 110.826 26.1345 110.357 27.0284C109.891 27.9186 109.254 28.6004 108.447 29.0739C107.644 29.5473 106.733 29.7841 105.714 29.7841C104.696 29.7841 103.783 29.5473 102.976 29.0739C102.173 28.5966 101.536 27.9129 101.067 27.0227C100.601 26.1288 100.368 25.0568 100.368 23.8068C100.368 22.553 100.601 21.4811 101.067 20.5909C101.536 19.697 102.173 19.0133 102.976 18.5398C103.783 18.0663 104.696 17.8295 105.714 17.8295C106.733 17.8295 107.644 18.0663 108.447 18.5398C109.254 19.0133 109.891 19.697 110.357 20.5909C110.826 21.4811 111.061 22.553 111.061 23.8068ZM108.942 23.8068C108.942 22.9242 108.804 22.1799 108.527 21.5739C108.254 20.964 107.875 20.5038 107.391 20.1932C106.906 19.8788 106.347 19.7216 105.714 19.7216C105.082 19.7216 104.523 19.8788 104.038 20.1932C103.554 20.5038 103.173 20.964 102.896 21.5739C102.624 22.1799 102.487 22.9242 102.487 23.8068C102.487 24.6894 102.624 25.4356 102.896 26.0455C103.173 26.6515 103.554 27.1117 104.038 27.4261C104.523 27.7367 105.082 27.892 105.714 27.892C106.347 27.892 106.906 27.7367 107.391 27.4261C107.875 27.1117 108.254 26.6515 108.527 26.0455C108.804 25.4356 108.942 24.6894 108.942 23.8068ZM120.955 29.7841C120.197 29.7841 119.519 29.642 118.92 29.358C118.322 29.0701 117.847 28.6761 117.494 28.1761C117.146 27.6761 116.96 27.1042 116.938 26.4602H118.983C119.021 26.9375 119.227 27.3277 119.602 27.6307C119.977 27.9299 120.428 28.0795 120.955 28.0795C121.367 28.0795 121.735 27.9848 122.057 27.7955C122.379 27.6061 122.633 27.3428 122.818 27.0057C123.004 26.6686 123.095 26.2841 123.091 25.8523C123.095 25.4129 123.002 25.0227 122.812 24.6818C122.623 24.3409 122.364 24.0739 122.034 23.8807C121.705 23.6837 121.326 23.5852 120.898 23.5852C120.549 23.5814 120.206 23.6458 119.869 23.7784C119.532 23.911 119.265 24.0852 119.068 24.3011L117.165 23.9886L117.773 17.9886H124.523V19.75H119.517L119.182 22.8352H119.25C119.466 22.5814 119.771 22.3712 120.165 22.2045C120.559 22.0341 120.991 21.9489 121.46 21.9489C122.165 21.9489 122.794 22.1155 123.347 22.4489C123.9 22.7784 124.335 23.233 124.653 23.8125C124.972 24.392 125.131 25.0549 125.131 25.8011C125.131 26.5701 124.953 27.2557 124.597 27.858C124.244 28.4564 123.754 28.928 123.125 29.2727C122.5 29.6136 121.777 29.7841 120.955 29.7841Z" fill="#1570EF"/>
</svg>
